<svg version="1.1" xmlns="http://www.w3.org/2000/svg" xmlns:xlink="http://www.w3.org/1999/xlink" width="78.87294" height="69.09314" viewBox="0,0,78.87294,69.09314"><g transform="translate(-200.56353,-145.45343)"><g data-paper-data="{&quot;isPaintingLayer&quot;:true}" fill="#d9ff00" fill-rule="nonzero" stroke="none" stroke-width="0.5" stroke-linecap="butt" stroke-linejoin="miter" stroke-miterlimit="10" stroke-dasharray="" stroke-dashoffset="0" style="mix-blend-mode: normal"><path d="M221.93641,154.42469c0.71791,1.25635 -0.53843,1.97426 -0.53843,1.97426l-1.5389,0.87937c-2.86172,1.63091 -6.15145,3.6462 -8.59084,5.84942c-1.15837,1.04622 -1.79534,2.55392 -2.70278,3.82394c-0.75306,1.17267 -1.68909,2.2439 -2.2717,3.50992c-0.77112,1.67563 -1.10647,3.52065 -1.57747,5.30406c-1.44498,5.4713 -2.03822,11.84383 0.25109,17.13713c0.98944,2.28775 2.33706,4.85376 4.54616,6.25096c1.41394,0.89428 3.09824,1.27167 4.5948,2.0195c4.07377,2.03567 8.14319,4.01748 12.30417,5.86978c11.20067,3.72527 23.96026,6.93952 35.41813,2.28196c2.6275,-1.06806 4.44953,-3.1152 6.60346,-4.87191c0.67293,-0.54883 1.48881,-0.94267 2.055,-1.60106c1.4161,-1.6467 2.24665,-4.57233 3.20912,-6.53197c3.25091,-6.54447 2.82772,-14.35744 2.83595,-21.49828c0.00387,-3.35225 -0.17138,-7.35741 -2.02437,-10.28659c-2.46956,-3.90384 -6.61824,-8.09893 -10.57255,-10.45932c-2.19591,-1.31077 -5.13608,-2.04238 -7.55489,-2.80587c-2.63338,-0.83308 -5.42662,-1.7944 -8.16331,-2.22353c-7.97303,-1.25018 -16.53488,-0.60663 -24.50288,0.26911c-4.04846,0.44495 -10.14206,1.24198 -11.50293,5.70581c0,0 -0.45758,1.37274 -1.83032,0.91516c-1.37274,-0.45758 -0.91516,-1.83032 -0.91516,-1.83032c2.02562,-5.73279 8.47573,-7.05485 13.92882,-7.66694c8.21578,-0.9222 17.05058,-1.54081 25.27077,-0.25188c2.88047,0.45166 5.81445,1.44743 8.58723,2.32315c2.62605,0.83117 5.7623,1.6475 8.14577,3.06839c4.32204,2.57656 8.91212,7.12362 11.56474,11.42431c2.1338,3.45953 2.45874,7.86454 2.46308,11.81851c0.00839,7.64709 0.28165,15.75302 -3.13234,22.77408c-1.06218,2.16264 -2.00245,5.23931 -3.55616,7.07556c-0.6854,0.81004 -1.64917,1.33576 -2.46466,2.01467c-2.3834,1.98421 -4.42228,4.09981 -7.34274,5.31503c-12.10244,5.03589 -25.70972,1.70056 -37.56623,-2.25992c-4.24609,-1.88427 -8.39807,-3.90127 -12.55193,-5.97947c-2.77909,-1.39039 -5.06098,-2.03494 -7.24664,-4.40719c-5.97664,-6.48686 -5.76866,-16.29875 -3.65153,-24.31903c0.0479,-0.18145 1.70871,-5.69647 1.74886,-5.78372c0.05241,-0.11388 2.05488,-3.22359 2.50515,-3.92386c1.02189,-1.43109 1.79086,-3.0889 3.08521,-4.27925c0.76263,-0.70135 1.73189,-1.13885 2.57346,-1.74323c2.24622,-1.61315 4.18458,-3.15915 6.59466,-4.53979l1.5389,-0.87937c0,0 1.25635,-0.71791 1.97426,0.53843z"/></g></g></svg>