<svg version="1.1" xmlns="http://www.w3.org/2000/svg" xmlns:xlink="http://www.w3.org/1999/xlink" width="38.96892" height="23.53445" viewBox="0,0,38.96892,23.53445"><g transform="translate(-230.54226,-161.70294)"><g data-paper-data="{&quot;isPaintingLayer&quot;:true}" fill-rule="nonzero" stroke="none" stroke-width="0.5" stroke-linecap="butt" stroke-linejoin="miter" stroke-miterlimit="10" stroke-dasharray="" stroke-dashoffset="0" style="mix-blend-mode: normal"><path d="" fill="#000000"/><path d="" fill="#08008f"/><path d="M234.53088,169.83685c0.20771,3.03302 0.15083,5.86676 -0.05527,8.93226c-0.04203,0.62508 -0.04799,1.25634 -0.16077,1.8726c-0.08071,0.441 -0.79753,1.04356 -0.41601,1.279c0.50006,0.30859 1.12071,-0.35805 1.69311,-0.49089c1.07049,-0.24844 2.14383,-0.49641 3.2317,-0.65207c0.72874,-0.10427 2.11748,0.49686 2.19595,-0.2351c0.04289,-0.40006 -0.27892,-0.76384 -0.31872,-1.16422c-0.14567,-1.46528 -0.29312,-7.23386 0.54966,-7.97411c0.90757,-0.79715 2.41167,0.17335 3.60741,0.34466c3.66857,0.52556 7.10786,0.9225 10.84135,0.9224c2.8402,-0.1578 5.79106,-0.76136 8.63623,-0.496c0.51417,0.04796 1.07438,0.69491 1.49711,0.39832c0.38827,-0.27242 0.01596,-0.95114 -0.03746,-1.42243c-0.15307,-1.35033 -0.54634,-2.66977 -0.64974,-4.02481c-0.04417,-0.57884 0.14466,-1.7592 -0.4314,-1.68729c-1.50937,0.1884 -2.86747,1.07385 -4.3689,1.31753c-4.38895,0.7123 -8.86814,0.98297 -13.27225,1.61892c-4.12297,0.59535 -7.94315,1.54629 -12.12523,1.53543zM231.44456,167.77022c0.00363,-0.11151 0.01618,-0.22971 0.03895,-0.35499c0.32974,-1.81358 2.14333,-1.48384 2.14333,-1.48384l1.65187,0.30791c3.86883,-0.01251 7.44843,-0.95973 11.26665,-1.51238c4.37941,-0.63389 8.82882,-0.91128 13.19545,-1.60699c1.87406,-0.29858 3.70034,-1.80154 5.53697,-1.32403c1.2442,0.32348 2.39072,1.19423 3.14062,2.23842c0.52625,0.73278 0.26125,1.78532 0.39033,2.6782c0.36925,2.55417 1.69778,6.62354 -0.6872,8.75118c-0.94693,0.84476 -2.51953,0.31913 -3.78603,0.39832c-2.83839,0.17747 -5.68635,0.33639 -8.53394,0.49458c-3.20818,-0.00008 -6.4202,-0.01822 -9.60092,-0.51987c-0.58278,-0.09192 -1.19867,-0.12797 -1.76174,-0.29745c0.21413,1.36763 0.24855,5.90808 -0.04311,6.48408c-1.26028,2.48884 -6.07429,3.02226 -8.44058,3.07517c-1.53523,0.03433 -3.40701,0.49945 -4.58061,-0.49089c-1.03762,-0.87559 -0.61827,-2.65248 -0.7462,-4.00412c-0.34692,-3.66536 0.48718,-7.48232 0.17137,-11.21958c0,0 -0.08603,-1.03234 0.6448,-1.61371z" fill="#08008f"/></g></g></svg>