<svg version="1.1" xmlns="http://www.w3.org/2000/svg" xmlns:xlink="http://www.w3.org/1999/xlink" width="39.90421" height="23.49135" viewBox="0,0,39.90421,23.49135"><g transform="translate(-228.39667,-163.66344)"><g data-paper-data="{&quot;isPaintingLayer&quot;:true}" fill-rule="nonzero" stroke="none" stroke-width="0.5" stroke-linecap="butt" stroke-linejoin="miter" stroke-miterlimit="10" stroke-dasharray="" stroke-dashoffset="0" style="mix-blend-mode: normal"><path d="" fill="#000000"/><path d="" fill="#08008f"/><path d="" fill="#08008f"/><path d="M231.87495,164.2086c0.46636,-0.28935 0.98889,-0.28935 0.98889,-0.28935c2.87326,0 8.19633,-1.18464 10.13255,1.54466c0.53376,0.75238 0.22178,1.83296 0.27133,2.75411c0.09465,1.75922 -0.05148,3.52424 -0.00094,5.28528c0.00502,0.17485 0.26531,1.27887 0.1669,2.17784c1.8336,-0.6635 3.86103,-0.73709 5.79365,-1.05592c4.7338,-0.78094 9.23616,-1.93621 13.96512,-0.76506c1.03436,0.13449 2.26657,-0.21963 3.10308,0.40345c2.85477,2.12642 2.01651,5.5041 1.36721,8.28976c-0.31613,1.35625 0.05129,3.1659 -1.02448,4.05024c-1.13844,0.93587 -2.92847,0.39245 -4.40209,0.41072c-3.24983,0.04029 -6.65909,-0.84518 -9.89384,-1.16053c-5.87243,-0.5725 -11.784,-0.24071 -17.63044,-0.82697c-2.10603,-0.21118 -3.54,-0.02264 -4.72788,-2.42782c-0.97661,-1.97741 -0.93508,-6.04903 -1.11243,-8.36311c0.01969,-2.38004 -0.90577,-4.22 -0.22385,-6.69482c0.21418,-0.7773 0.83477,-1.37967 1.25215,-2.0695l0.32505,-0.48826c0,0 0.6372,-0.95581 1.65003,-0.77474zM232.7613,167.32178c-1.55582,2.28613 -0.50203,4.1894 -0.48404,6.78335c0.16466,2.13172 0.13822,4.86968 0.7191,6.89969c0.29415,1.02798 3.31249,0.74963 3.90121,0.77318c5.28913,0.21157 10.48991,0.16721 15.77585,0.68376c3.24407,0.31702 6.50672,0.68776 9.73252,1.14864c0.67642,0.09664 1.49165,0.85789 2.00829,0.41072c0.51863,-0.4489 -0.16293,-1.37111 -0.10871,-2.05488c0.04761,-0.60039 1.37856,-4.23123 0.14618,-4.83625c-0.53372,-0.26202 -1.18734,0.06546 -1.78102,0.0982c-5.07782,-1.28188 -10.54311,0.30037 -15.5993,1.30276c-0.01827,0.00362 -6.22624,1.23603 -6.27768,1.19329c-0.99923,-0.83006 -0.58437,-2.53398 -0.78058,-3.8181c-0.22087,-1.44555 -0.15334,-4.06946 -0.15357,-5.39869c-0.00014,-0.76314 -0.06451,-1.52901 0,-2.28942c0.02673,-0.31507 0.37874,-0.61156 0.27133,-0.90896c-0.06876,-0.19038 -0.4045,-0.02132 -0.60691,-0.02024c-2.22058,0.01183 -4.43942,0.03862 -6.66014,0.03862c0,0 -0.03796,0 -0.10255,-0.00566z" fill="#08008f"/></g></g></svg>